# xmcd
#
# Track frame offsets: 
#        150
#        22182
#        43498
#        64891
#        81700
#        105483
#        131240
#        151799
#        177816
#        197057
#        224367
#        251688
#        274616
#        292659
#
# Disc length: 4664 seconds
#
# Revision: 2
# Processed by: cddbd v1.5.2PL0 Copyright (c) Steve Scherf et al.
# Submitted via: ExactAudioCopy v1.0b3
#
DISCID=d312360e
DTITLE=Various Artist - Blues Paradise  Vol.17
DYEAR=2002
DGENRE=Blues
TTITLE0=Vargas Blues Band - I Need You Love So Bad
TTITLE1=Corey Stevens - Blue Drops Of Rain
TTITLE2=Pat Boyack and The Prowlers - I Know It's Over
TTITLE3=Chris "Hammer" Smith and Barbara Harrison - Till I Meet You
TTITLE4=Fred James - Full Moon On Main Street
TTITLE5=Lazy Poker Blues Band and Little SmokeySmothers - Clouds In My H
TTITLE5=eart
TTITLE6=Jon Bare and The Killer Whales - You Shook Me
TTITLE7=Floyd Miles And Friends - That's Why I'm Here Tonight
TTITLE8=Foghat - That's Alright Mama
TTITLE9=Peter Garstenauer - Feels Like Years
TTITLE10=Barry Richman Band - Reflection Avenue
TTITLE11=King Jonson - Where My Baby Might Be
TTITLE12=Diana Durret - Side Squieeze
TTITLE13=Eric Clapton - Stormy Monday Blues
EXTD=YEAR: 2002
EXTT0=
EXTT1=
EXTT2=
EXTT3=
EXTT4=
EXTT5=
EXTT6=
EXTT7=
EXTT8=
EXTT9=
EXTT10=
EXTT11=
EXTT12=
EXTT13=
PLAYORDER=
